<?xml version="1.0" standalone="no"?>
<!DOCTYPE svg PUBLIC "-//W3C//DTD SVG 20010904//EN"
 "http://www.w3.org/TR/2001/REC-SVG-20010904/DTD/svg10.dtd">
<svg version="1.0" xmlns="http://www.w3.org/2000/svg"
 width="964.000000pt" height="1136.000000pt" viewBox="0 0 964.000000 1136.000000"
 preserveAspectRatio="xMidYMid meet">

<g transform="translate(0.000000,1136.000000) scale(0.100000,-0.100000)"
fill="#000000" stroke="none">
<path d="M4003 9984 c-7 -3 -3 -13 11 -29 39 -42 32 -62 -69 -217 -16 -26 -38
-49 -47 -51 -22 -6 -48 -97 -41 -142 4 -27 9 -33 18 -25 9 8 15 0 23 -32 12
-48 0 -87 -22 -69 -9 7 -17 5 -29 -9 -9 -11 -17 -25 -17 -30 0 -7 -8 -7 -21 1
-20 10 -21 9 -16 -10 5 -21 -7 -29 -18 -11 -9 15 -38 12 -29 -2 4 -7 0 -6 -9
2 -21 20 -87 138 -87 156 0 8 9 40 19 72 24 74 36 134 21 110 -5 -9 -26 -33
-45 -52 -19 -20 -36 -44 -36 -54 -1 -9 -3 -46 -5 -82 -6 -137 -8 -144 -44
-154 -22 -7 -38 -6 -50 2 -14 8 -20 8 -22 0 -3 -8 -12 -6 -28 5 -32 22 -40 21
-40 -4 0 -15 -5 -19 -15 -15 -22 8 -18 -5 12 -36 31 -33 22 -52 -31 -62 -19
-4 -40 -14 -47 -22 -13 -15 -40 -15 -82 1 -17 7 -17 6 0 -24 10 -17 24 -31 31
-31 7 0 23 -5 34 -11 19 -10 15 -14 -47 -46 -42 -21 -73 -32 -84 -27 -18 8
-44 6 -51 -5 -3 -4 -13 -11 -24 -14 -14 -5 -17 -13 -12 -32 9 -35 -9 -31 -24
5 -11 27 -46 58 -55 48 -7 -7 -7 -35 -1 -63 8 -32 52 -65 87 -65 11 0 18 -4
14 -9 -3 -5 -1 -12 4 -16 6 -3 4 -20 -5 -42 l-15 -36 36 6 c32 5 35 4 24 -9
-7 -9 -30 -24 -51 -35 -40 -20 -147 -107 -200 -162 -53 -56 -138 -165 -138
-179 0 -8 -4 -18 -9 -23 -5 -6 -11 -21 -14 -35 -3 -14 -3 10 0 53 2 42 2 77
-2 77 -3 0 -15 -19 -25 -42 -14 -31 -20 -65 -20 -123 l0 -80 20 25 20 25 -10
-35 c-23 -82 6 -63 71 45 17 28 39 64 50 81 10 17 21 45 23 62 6 55 65 129
184 232 105 92 152 119 152 88 0 -6 -25 -36 -56 -67 l-56 -56 49 -45 48 -45 8
90 c4 49 13 95 19 102 18 22 140 17 186 -7 l39 -21 -8 -45 c-10 -53 6 -144 25
-144 8 0 25 -9 40 -21 21 -16 24 -24 16 -35 -10 -11 0 -14 52 -16 l63 -3 -57
-14 c-32 -8 -58 -17 -58 -21 0 -4 -15 -5 -32 -4 l-33 3 35 -8 c77 -20 161 -22
201 -4 21 9 36 20 33 25 -3 4 6 8 20 8 27 0 98 50 128 91 11 14 30 54 42 90
14 36 30 64 37 64 15 0 15 -4 3 -125 -5 -60 -3 -70 25 -124 17 -32 30 -60 29
-62 -9 -8 -119 -22 -139 -17 -13 3 -41 19 -62 35 -45 35 -65 33 -117 -13 -20
-18 -26 -26 -13 -20 14 7 24 8 28 1 3 -5 1 -10 -4 -10 -6 0 -11 -5 -11 -11 0
-7 9 -9 21 -6 19 5 20 2 16 -38 -4 -34 -2 -42 9 -38 8 3 14 8 14 12 0 4 14 15
30 24 35 21 36 19 10 -33 -20 -39 -16 -52 8 -28 10 10 15 10 22 -2 8 -12 10
-10 10 8 0 12 6 22 13 22 9 0 12 -13 9 -42 l-3 -43 19 34 c20 36 35 30 32 -12
-1 -12 -2 -31 -1 -42 2 -19 3 -19 15 -3 15 20 26 14 26 -16 0 -20 0 -20 14 0
8 10 16 17 18 14 2 -3 8 -14 14 -24 19 -35 34 -31 28 6 l-7 33 34 -36 c19 -19
53 -44 76 -54 23 -10 40 -22 37 -27 -3 -4 2 -5 10 -2 14 5 13 10 -5 36 -12 16
-19 31 -17 33 2 3 21 -4 41 -15 55 -30 56 -25 7 27 -35 36 -38 43 -17 29 23
-14 182 -76 196 -76 2 0 0 7 -3 16 -5 13 -1 14 24 9 37 -8 55 1 39 21 -17 21
12 28 55 14 27 -8 44 -8 76 1 l40 12 -26 18 -27 17 39 11 c81 22 78 45 -7 61
-48 9 -178 48 -188 56 -2 2 15 24 38 50 23 26 45 61 49 78 8 29 11 30 58 31
35 0 74 -10 139 -38 50 -21 98 -41 108 -44 18 -6 24 -23 7 -23 -5 0 -7 -6 -4
-13 2 -7 -4 -22 -16 -32 -26 -24 -26 -45 3 -45 21 -1 22 -1 3 -15 -19 -14 -19
-15 5 -15 23 0 69 -36 69 -53 0 -4 -10 -7 -22 -7 -25 0 -138 -51 -138 -62 0
-4 12 -8 28 -10 l27 -3 -35 -23 c-19 -12 -45 -22 -57 -22 -26 0 -31 -18 -8
-26 20 -8 19 -27 -3 -54 -16 -20 -22 -22 -53 -12 -19 5 -46 13 -61 16 -17 4
-28 13 -28 24 0 15 -2 15 -10 2 -5 -8 -10 -31 -10 -52 0 -34 -2 -36 -37 -41
-87 -11 -217 -7 -273 7 -79 20 -143 54 -273 142 -72 49 -118 74 -137 74 -16 0
-66 -9 -112 -20 -46 -11 -117 -23 -158 -26 l-75 -6 -43 36 c-24 19 -62 41 -85
47 -42 11 -149 86 -166 117 -13 23 -25 9 -17 -20 7 -30 88 -112 137 -140 25
-14 39 -29 39 -42 0 -16 3 -17 12 -8 19 19 43 14 72 -13 15 -14 31 -23 36 -20
5 3 11 1 15 -5 3 -5 15 -10 25 -10 11 0 25 -6 32 -13 6 -8 22 -12 34 -9 12 2
25 -1 28 -7 4 -6 16 -11 26 -11 10 0 20 -6 23 -12 3 -9 11 -5 25 10 l21 24 3
-39 3 -38 17 30 17 30 1 -35 0 -34 16 23 c13 18 18 20 25 10 6 -11 9 -9 15 5
5 13 9 14 15 5 6 -10 10 -10 23 0 13 11 18 8 33 -23 10 -22 20 -32 24 -25 4 8
13 5 27 -9 l20 -20 13 24 c9 17 15 21 20 12 6 -9 11 -9 23 1 14 12 16 9 17
-25 l1 -39 9 30 c6 23 15 31 34 33 20 1 25 -3 26 -21 0 -19 1 -20 8 -4 6 16 9
17 18 5 7 -7 17 -26 22 -41 12 -30 31 -28 31 4 0 29 19 23 26 -8 10 -38 26
-46 41 -20 l12 22 9 -24 c10 -27 65 -39 89 -20 11 9 17 8 27 -6 7 -10 18 -15
23 -12 6 4 18 -2 28 -13 12 -13 25 -18 37 -14 10 3 25 0 33 -6 8 -7 15 -9 15
-6 0 4 7 0 16 -9 10 -9 25 -14 36 -12 10 3 22 -2 27 -10 14 -27 28 -6 34 52 5
46 11 59 38 83 37 31 106 41 116 16 3 -8 10 -14 17 -14 6 0 20 -16 31 -36 18
-34 56 -59 81 -56 6 1 17 -9 24 -23 7 -14 24 -32 37 -40 12 -9 23 -20 23 -25
0 -16 -56 17 -75 42 l-17 23 7 -24 c5 -15 3 -21 -3 -17 -5 3 -15 -1 -22 -9 -8
-9 -21 -13 -36 -9 -16 4 -24 2 -24 -7 -1 -20 -40 29 -40 50 -1 14 -3 13 -15
-3 -11 -14 -13 -39 -10 -100 7 -111 -29 -189 -63 -138 -8 12 -20 22 -27 22 -7
0 -18 15 -26 33 -17 43 -17 43 -34 21 -8 -10 -15 -13 -15 -7 0 9 -7 10 -26 3
-15 -6 -32 -6 -42 -1 -9 4 -23 6 -29 4 -7 -3 -13 0 -13 7 0 6 -11 -2 -24 -17
-20 -23 -27 -26 -37 -15 -11 10 -16 6 -30 -20 l-16 -32 -15 29 -15 28 -15 -22
c-14 -20 -16 -20 -22 -4 -6 15 -8 15 -17 3 -7 -11 -11 -12 -17 -3 -12 18 -26
3 -46 -49 -21 -57 -31 -65 -46 -37 -10 17 -7 27 13 57 25 36 46 97 41 117 -1
6 -5 23 -8 38 -8 33 -23 27 -41 -16 l-13 -30 -7 41 c-8 48 -20 53 -37 17 -11
-25 -28 -34 -28 -15 0 19 -21 10 -30 -12 -7 -18 -9 -19 -9 -5 -1 9 -8 17 -16
17 -8 0 -15 7 -15 15 0 8 -4 15 -10 15 -5 0 -10 -8 -10 -18 0 -10 -6 -26 -13
-37 -13 -16 -15 -14 -21 24 -6 43 -26 48 -26 8 0 -18 -2 -19 -10 -7 -6 10 -10
11 -10 3 0 -13 -26 -13 -48 0 -13 9 -17 1 -27 -55 -9 -57 -22 -54 -19 5 l4 52
-14 -49 c-19 -63 -36 -82 -36 -38 0 25 -4 32 -20 32 -11 0 -20 -6 -20 -12 0
-23 -20 16 -21 42 -1 21 -2 22 -6 5 -3 -11 -12 -29 -20 -40 -14 -18 -14 -15
-8 38 3 31 4 57 1 57 -3 0 -13 -26 -23 -57 -13 -44 -18 -52 -21 -34 -2 13 1
43 7 67 15 58 14 69 -2 55 -8 -6 -19 -30 -27 -53 -7 -24 -18 -52 -26 -63 -13
-19 -14 -18 -14 8 0 17 -4 26 -10 22 -8 -5 -9 10 -4 44 8 63 -8 69 -28 9 -7
-23 -19 -44 -27 -46 -8 -3 -11 0 -7 7 4 6 2 11 -3 11 -6 0 -11 9 -11 20 0 11
-4 20 -10 20 -5 0 -10 -6 -10 -14 0 -21 -21 -31 -30 -15 -7 10 -12 10 -23 1
-16 -14 -105 -8 -121 8 -16 16 -23 12 -30 -14 -5 -19 -14 -24 -53 -30 -67 -9
-108 15 -160 95 -47 70 -65 81 -85 50 -7 -12 -18 -21 -25 -21 -7 0 -15 -10
-18 -23 -11 -41 -86 -25 -103 21 -23 63 -34 146 -27 215 l7 72 -32 -30 c-48
-45 -52 -66 -40 -174 15 -123 23 -135 110 -171 14 -5 32 -14 40 -19 8 -5 27
-14 42 -20 l28 -10 -24 -25 c-14 -13 -30 -43 -36 -66 -15 -56 -3 -103 72 -293
33 -82 57 -152 54 -155 -4 -3 -37 -22 -74 -42 -55 -29 -71 -44 -90 -81 -22
-44 -23 -56 -27 -398 -3 -194 -7 -357 -10 -362 -4 -5 -10 -47 -15 -94 -7 -68
-24 -125 -91 -302 -126 -338 -283 -724 -546 -1348 -31 -71 -63 -150 -73 -175
-10 -25 -55 -129 -100 -230 -86 -193 -201 -477 -290 -715 -77 -205 -200 -566
-200 -588 0 -16 6 -13 39 15 75 64 347 162 470 170 45 3 45 3 53 -37 6 -25 5
-41 -1 -43 -12 -4 -3 -87 12 -116 7 -15 5 -22 -8 -32 -22 -17 -11 -52 21 -66
30 -14 26 -32 -8 -36 -23 -3 -26 -8 -32 -63 -8 -70 -3 -67 -156 -105 -124 -30
-146 -40 -110 -48 25 -6 994 -166 1004 -166 4 0 6 -81 6 -181 0 -137 -3 -180
-12 -177 -9 3 -13 48 -14 159 -1 85 -2 157 -3 161 -2 16 -49 31 -116 39 -38 4
-108 15 -155 23 -47 8 -114 20 -150 25 -36 6 -121 20 -190 32 -160 27 -149 25
-261 43 -53 9 -103 18 -111 21 -9 4 -23 -1 -32 -10 -13 -13 -16 -40 -17 -143
-1 -70 -4 -188 -8 -262 -5 -92 -4 -139 4 -147 6 -7 89 -28 185 -48 618 -122
849 -166 875 -166 17 0 169 45 339 101 169 56 311 98 315 95 3 -4 6 -57 7
-118 1 -109 2 -112 25 -119 13 -4 137 -14 274 -23 138 -8 412 -26 610 -40 198
-13 404 -28 457 -31 l96 -7 131 199 131 199 -1 100 c-2 156 -4 162 -46 161
l-34 -1 -105 275 c-138 362 -232 622 -309 855 -35 105 -86 255 -114 335 -102
297 -160 499 -246 865 -26 110 -54 220 -61 245 -43 148 -184 828 -213 1027
-13 88 -14 216 -2 209 12 -8 22 55 20 134 0 36 7 101 16 145 9 44 21 100 26
124 5 25 14 48 21 52 6 4 8 14 5 22 -3 8 0 34 8 58 l13 44 83 -2 c46 -1 121
-7 167 -13 l83 -12 -1 -42 c-2 -57 -2 -60 14 -47 8 7 20 35 27 63 15 65 4 74
-91 84 -81 8 -91 13 -83 43 4 18 11 21 29 17 32 -8 82 19 89 47 2 12 16 69 30
126 14 57 25 124 25 149 0 38 -5 49 -36 78 -19 19 -40 34 -46 34 -7 0 -8 17
-4 49 8 60 -6 95 -45 112 -23 9 -36 9 -58 -1 -41 -17 -58 -39 -70 -90 -5 -24
-19 -51 -29 -59 -24 -19 -42 -53 -42 -78 0 -10 -4 -25 -10 -33 -7 -12 -17 -9
-57 20 -26 18 -49 34 -51 36 -2 1 39 61 90 133 51 72 103 148 115 168 22 37
24 38 96 44 54 5 89 14 126 35 48 26 56 27 99 17 26 -6 74 -16 107 -23 140
-28 144 -30 177 -93 17 -31 44 -67 60 -80 47 -35 78 -69 72 -78 -14 -24 18 -5
38 21 12 17 28 30 35 30 7 0 26 12 43 28 26 23 32 38 41 105 10 70 14 79 40
93 16 8 31 24 33 37 6 29 18 135 16 143 -1 4 4 10 10 14 7 4 14 18 15 31 1 13
3 30 4 37 0 6 6 12 12 12 6 0 8 -8 5 -17 -18 -62 -18 -73 -2 -67 37 14 76 132
76 229 0 107 -44 232 -106 298 -35 38 -58 36 -51 -3 8 -38 -3 -38 -25 0 -10
17 -25 30 -36 30 -13 0 -22 9 -26 24 -3 13 -9 32 -12 43 -3 10 9 1 28 -21 30
-34 35 -37 47 -22 12 14 12 29 1 71 -1 6 -2 33 -1 60 2 47 3 49 17 30 8 -11
19 -38 25 -60 18 -72 43 -131 47 -112 2 12 9 16 19 13 11 -5 14 -1 10 13 -3
13 0 17 12 14 14 -3 16 5 16 54 0 42 4 57 13 55 14 -2 24 21 39 85 8 34 7 43
-5 48 -13 5 -12 8 2 24 10 11 14 21 9 24 -4 3 -7 34 -7 69 1 34 -3 68 -8 75
-7 9 -5 18 6 28 9 9 16 22 16 29 0 8 7 19 15 26 20 16 20 70 1 70 -25 0 -29
20 -9 43 11 12 20 33 21 47 2 36 -20 80 -40 80 -10 0 -18 5 -18 10 0 6 4 10 9
10 5 0 11 19 13 42 4 38 1 43 -31 62 -27 16 -31 22 -18 24 9 2 17 7 17 12 0 5
-9 7 -21 5 -16 -3 -19 0 -15 12 4 10 -4 28 -22 47 -23 24 -31 43 -35 86 -3 30
-13 77 -22 104 -9 26 -17 63 -18 82 -1 19 -8 36 -14 39 -7 2 -13 11 -13 20 0
21 -43 36 -82 29 -25 -4 -29 -3 -18 5 21 14 10 21 -76 46 -63 18 -72 23 -53
29 l24 7 -24 10 c-13 5 -45 27 -71 49 -104 87 -242 150 -329 150 -39 0 -90
-29 -151 -87 -35 -33 -66 -48 -34 -16 11 11 13 18 5 21 -6 2 -34 -16 -63 -39
-35 -30 -47 -37 -39 -21 10 20 9 22 -10 22 -36 0 -144 -118 -184 -201 -31 -63
-35 -83 -34 -136 1 -35 -1 -66 -4 -70 -4 -3 -7 -17 -7 -29 0 -33 -18 -39 -29
-11 -6 14 -14 28 -19 31 -6 3 -13 32 -17 64 -6 53 -4 63 24 113 61 107 101
189 101 204 0 35 95 112 178 144 62 25 255 46 282 31 23 -13 33 2 17 24 -7 9
-32 18 -57 21 -84 9 -375 38 -420 41 -25 2 -50 1 -57 -2z m762 -275 l40 -19
-40 5 c-81 11 -131 12 -152 2 -35 -15 -27 -27 9 -16 47 13 47 12 8 -22 l-35
-31 33 7 c32 7 33 6 26 -22 -5 -23 -4 -26 7 -15 22 20 34 14 14 -8 -18 -19
-17 -20 5 -20 13 0 20 -3 17 -7 -4 -3 8 -17 25 -30 18 -12 28 -23 23 -23 -5 0
-4 -5 3 -12 10 -10 7 -15 -10 -25 -22 -12 -22 -12 10 -13 17 0 32 -5 32 -11 0
-6 7 -8 15 -5 8 3 22 9 31 12 9 4 4 -5 -10 -19 -27 -27 -34 -47 -16 -47 6 0
10 -7 10 -15 0 -9 9 -15 22 -15 20 0 21 -1 3 -20 -12 -13 -31 -20 -57 -20 -36
0 -38 2 -28 20 12 22 9 23 -35 20 -16 -1 -27 1 -23 5 14 14 -33 45 -69 46 -32
0 -34 2 -17 9 31 12 37 28 15 35 -10 3 -23 5 -27 4 -5 -1 -22 3 -38 10 -23 9
-33 9 -52 -4 -13 -8 -24 -11 -24 -5 0 5 4 10 8 10 4 0 33 23 63 51 52 49 51
54 -8 32 -8 -3 -10 3 -6 18 l6 23 -35 -21 c-19 -11 -48 -28 -64 -38 -17 -10
-7 3 26 34 43 40 49 50 30 45 -14 -4 -37 -9 -51 -10 -14 -1 -50 -19 -80 -40
-90 -62 -210 -185 -165 -168 11 4 13 0 9 -15 -7 -25 5 -27 37 -4 24 17 24 16
-3 -20 -15 -20 -23 -37 -16 -37 11 0 73 47 123 92 11 10 22 16 24 13 3 -3 -21
-32 -53 -65 -31 -34 -55 -63 -53 -65 3 -3 17 -6 31 -7 15 -1 27 -6 27 -11 0
-12 -72 -40 -99 -39 -17 2 -35 -9 -57 -33 -30 -33 -54 -45 -54 -26 0 4 11 19
23 32 35 35 61 79 48 79 -6 0 -30 -20 -54 -44 -23 -24 -53 -49 -67 -56 l-25
-13 24 27 c29 31 17 35 -14 6 l-22 -21 -7 65 c-5 55 -3 72 13 104 20 39 171
209 226 254 45 38 139 88 203 109 74 25 234 19 297 -12z m100 -29 c15 -7 10
-9 -23 -9 -26 -1 -41 3 -37 9 7 12 32 12 60 0z m-385 -175 c-7 -8 -17 -15 -23
-15 -6 0 -2 7 9 15 25 19 30 19 14 0z m140 -122 c0 -9 -62 -72 -104 -106 l-29
-24 23 -30 c12 -17 32 -34 43 -37 17 -4 18 -7 7 -20 -16 -20 -44 -20 -59 -2
-7 8 -32 20 -57 27 -62 19 -75 36 -45 60 13 11 33 19 45 19 12 0 40 15 61 34
22 19 54 45 70 60 31 26 45 32 45 19z m237 -93 c2 -25 -10 -32 -42 -24 -31 8
-32 18 -2 32 33 16 43 14 44 -8z m-1372 -48 c-8 -8 -35 20 -35 37 1 12 5 11
21 -8 11 -13 17 -26 14 -29z m1381 3 c-21 -16 -32 -13 -21 4 3 6 14 11 23 11
15 -1 15 -2 -2 -15z m24 -20 c-7 -8 -20 -15 -29 -15 -13 1 -13 3 3 15 26 19
42 19 26 0z m-278 -83 c7 -10 33 -24 58 -32 35 -11 40 -15 22 -18 -12 -2 -36
4 -53 12 -17 9 -35 13 -40 10 -5 -3 -18 0 -29 6 -17 9 -19 14 -9 26 16 19 35
18 51 -4z m-887 -60 c50 -21 124 -49 165 -62 41 -13 87 -32 101 -42 19 -14 46
-20 105 -22 91 -3 250 -24 279 -37 38 -16 161 -59 182 -62 11 -1 39 -15 61
-30 34 -22 43 -36 57 -84 9 -32 28 -80 41 -107 14 -27 23 -51 21 -53 -10 -9
-114 39 -138 64 -14 16 -62 47 -106 70 -57 31 -88 54 -106 81 -32 50 -101 95
-185 123 -63 21 -66 21 -79 3 -27 -37 -17 -51 53 -68 68 -17 130 -44 121 -52
-2 -3 -25 0 -51 7 -25 6 -75 10 -110 7 -51 -3 -71 -10 -101 -32 -27 -21 -40
-25 -48 -17 -6 6 -21 11 -34 11 -13 0 -23 6 -23 15 0 8 -17 32 -37 53 -39 41
-100 66 -191 79 -23 3 -45 10 -48 14 -8 14 98 10 148 -5 53 -16 71 -9 66 25
-3 27 -30 36 -118 38 -67 1 -112 -11 -159 -43 -20 -13 -60 -29 -89 -35 -30 -6
-62 -15 -71 -21 -10 -5 -56 -10 -102 -11 -64 -1 -87 -6 -96 -18 -9 -11 -12
-12 -13 -3 0 7 50 62 111 122 87 86 121 112 157 124 92 29 98 29 237 -32z
m1265 -1 c0 -6 -5 -13 -10 -16 -6 -4 -8 -10 -5 -14 5 -10 -33 -47 -40 -39 -3
3 4 16 15 31 11 14 20 30 20 36 0 6 5 11 10 11 6 0 10 -4 10 -9z m-205 -141
c-10 -11 -27 -20 -38 -20 -19 0 -20 1 -2 20 10 11 27 20 38 20 19 0 20 -1 2
-20z m-1040 -64 c121 -32 156 -72 144 -163 -10 -72 -49 -130 -109 -160 -52
-27 -87 -29 -126 -8 -16 8 -45 17 -64 21 -76 12 -78 13 -96 59 -31 83 7 213
74 249 34 19 112 20 177 2z m481 -112 c100 -20 163 -51 192 -94 38 -56 26
-159 -24 -211 -45 -47 -71 -52 -157 -35 -42 9 -91 16 -108 16 -41 0 -97 42
-115 86 -42 99 10 230 97 247 13 2 27 5 30 6 4 0 42 -6 85 -15z m543 -40 c2
-2 2 -6 0 -9 -8 -7 -49 7 -49 17 0 8 38 2 49 -8z m241 -259 c0 -9 -9 -15 -22
-15 -17 0 -19 -3 -10 -12 7 -7 12 -19 12 -27 0 -10 -5 -9 -17 6 -10 11 -23 18
-29 16 -13 -4 -40 25 -31 33 3 3 14 1 25 -5 15 -8 23 -7 32 4 16 19 40 19 40
0z m170 -56 c0 -5 -4 -9 -10 -9 -5 0 -10 7 -10 16 0 8 5 12 10 9 6 -3 10 -10
10 -16z m-160 -49 c0 -5 -4 -10 -10 -10 -5 0 -10 5 -10 10 0 6 5 10 10 10 6 0
10 -4 10 -10z m-165 -10 c3 -5 1 -10 -4 -10 -6 0 -11 5 -11 10 0 6 2 10 4 10
3 0 8 -4 11 -10z m71 -377 c-11 -11 -19 6 -11 24 8 17 8 17 12 0 3 -10 2 -21
-1 -24z m-2 -29 c4 -9 4 -19 1 -22 -6 -6 -35 18 -35 29 0 16 28 10 34 -7z
m266 -50 c0 -8 -4 -14 -10 -14 -5 0 -10 9 -10 21 0 11 5 17 10 14 6 -3 10 -13
10 -21z m-290 -4 c0 -5 -2 -10 -4 -10 -3 0 -8 5 -11 10 -3 6 -1 10 4 10 6 0
11 -4 11 -10z m280 -62 c-1 -34 -3 -39 -11 -26 -8 15 -3 68 7 68 2 0 4 -19 4
-42z m-2161 -188 c31 -7 47 -8 55 0 16 16 37 12 34 -7 -2 -13 17 -24 89 -47
l92 -31 21 -50 c38 -89 37 -128 -5 -235 -21 -52 -119 -255 -219 -450 -99 -195
-196 -388 -215 -427 -19 -40 -38 -73 -42 -73 -4 0 -9 145 -11 323 -6 394 -11
372 114 437 52 26 88 51 88 60 0 8 -21 62 -46 120 -128 295 -137 358 -59 391
21 9 31 8 104 -11z m1063 -199 c52 -11 88 -37 88 -63 0 -13 -50 -88 -115 -173
-63 -83 -117 -158 -120 -167 -5 -12 14 -27 74 -62 109 -63 119 -86 82 -188
-53 -144 -127 -422 -151 -566 -7 -41 -16 -70 -20 -65 -4 4 -13 49 -19 98 -7
50 -16 93 -20 98 -4 4 -27 -3 -52 -17 -24 -13 -65 -32 -92 -41 -43 -16 -50
-24 -77 -79 -51 -108 -136 -176 -254 -205 -76 -19 -177 5 -245 57 -34 26 -41
27 -148 27 -88 0 -116 3 -128 16 -20 19 -33 119 -16 119 7 0 10 4 7 8 -2 4 10
6 28 4 25 -3 44 4 79 29 44 30 63 69 35 69 -13 0 -95 -46 -120 -68 -16 -14
-18 -13 -18 5 0 22 67 88 116 114 23 12 32 27 42 66 23 87 89 165 182 214 39
20 59 24 145 24 84 0 107 -4 147 -23 60 -30 126 -95 150 -149 10 -24 21 -43
24 -43 3 0 39 12 80 26 74 27 74 27 74 63 0 21 -11 116 -25 212 -41 292 -45
321 -51 420 -9 123 -2 156 42 207 l35 41 82 4 c45 2 91 2 102 -1 11 -2 37 -7
57 -11z m238 -260 c0 -43 -12 -61 -41 -61 -30 0 -35 12 -23 57 9 35 64 38 64
4z m-60 -128 c0 -10 -9 -56 -20 -103 -23 -99 -24 -108 -10 -94 5 5 18 54 29
108 11 54 22 101 25 103 12 12 36 -8 36 -31 0 -28 -56 -281 -65 -296 -3 -6
-20 -10 -36 -10 -34 0 -72 17 -65 29 3 4 6 41 7 82 1 84 16 185 30 211 13 25
69 25 69 1z m138 -55 c18 -18 14 -81 -11 -193 -17 -75 -27 -101 -40 -103 -22
-4 -22 12 3 129 11 52 20 113 20 137 0 43 7 51 28 30z m-158 -330 c0 -41 -14
-51 -60 -45 -56 7 -69 21 -45 47 13 14 31 20 62 20 38 0 43 -3 43 -22z m-1706
-1703 c-1 -11 -7 -54 -13 -95 -7 -41 -12 -96 -12 -122 -1 -26 -8 -55 -16 -65
-13 -16 -14 -12 -8 42 5 45 14 202 15 263 0 2 8 2 18 0 10 -2 16 -12 16 -23z
m112 -17 c-11 -51 -26 -198 -26 -255 0 -29 -4 -53 -9 -53 -17 0 -20 30 -10 83
6 28 10 91 9 138 -1 95 5 119 27 119 12 0 14 -7 9 -32z m532 -113 c70 -8 169
-20 221 -26 l93 -12 -7 -91 c-4 -50 -8 -93 -10 -95 -5 -4 -283 27 -349 40 -27
5 -64 9 -82 9 -32 0 -34 2 -34 34 0 82 13 156 27 156 8 0 72 -7 141 -15z m748
-20 c3 -8 1 -37 -6 -63 -6 -27 -12 -87 -14 -133 -3 -89 -18 -141 -31 -107 -4
10 -2 44 3 75 6 32 10 100 9 151 -2 82 0 92 16 92 10 0 20 -7 23 -15z m118
-11 c11 -4 13 -10 8 -18 -11 -13 -31 -174 -34 -258 -1 -43 -5 -58 -15 -58 -12
0 -14 11 -9 58 3 31 9 108 12 170 3 61 10 112 14 112 5 0 16 -3 24 -6z m-1604
-649 c-13 -63 -37 -91 -27 -32 8 48 -12 71 -50 56 -14 -5 -58 -9 -97 -9 -39 1
-104 -2 -143 -5 -48 -4 -73 -3 -73 4 0 13 36 20 232 40 90 9 164 13 166 9 2
-4 -2 -32 -8 -63z m1665 -30 c33 -13 98 -35 145 -50 47 -15 90 -32 95 -37 16
-15 -62 1 -130 27 -33 12 -83 28 -112 35 -64 15 -88 4 -97 -45 -4 -19 -12 -35
-17 -35 -10 0 -5 78 8 123 5 20 11 19 108 -18z m-1946 -657 c-1 -85 -6 -80
-11 10 -3 34 -1 62 4 62 4 0 8 -33 7 -72z m161 62 c0 -5 -15 -9 -32 -9 l-33 1
30 8 c17 4 31 8 33 9 1 0 2 -3 2 -9z m167 -95 c0 -8 -4 -12 -9 -9 -4 3 -8 9
-8 15 0 5 4 9 8 9 5 0 9 -7 9 -15z m-10 -30 c9 -9 20 -12 27 -7 6 4 34 8 61 7
39 0 49 -3 46 -15 -1 -8 -4 -24 -6 -35 -1 -11 -5 -27 -9 -35 -7 -18 29 -46 39
-30 8 13 16 12 39 -5 14 -10 16 -18 9 -27 -6 -7 -13 -27 -16 -44 -5 -24 0 -37
23 -64 23 -27 27 -37 18 -53 -8 -16 -12 -17 -19 -6 -8 12 -11 12 -19 -1 -16
-24 -12 -49 15 -84 26 -34 32 -56 16 -56 -5 0 -12 6 -14 13 -3 7 -6 6 -6 -5
-1 -9 4 -20 9 -23 16 -10 12 -21 -14 -35 -25 -13 -43 -46 -48 -90 -2 -18 -10
-26 -28 -28 -14 -2 -30 -8 -36 -13 -6 -5 -15 -4 -20 1 -7 7 -17 5 -30 -5 -19
-14 -19 -14 3 -15 16 0 20 -5 16 -20 -6 -22 -18 -26 -28 -10 -5 7 -11 8 -18 1
-8 -6 -19 -4 -32 5 -15 11 -17 18 -9 32 9 13 6 20 -12 34 -24 20 -39 24 -29 8
3 -5 2 -10 -3 -10 -14 0 -45 69 -38 85 2 7 -2 19 -10 26 -9 7 -11 16 -5 23 10
13 9 49 -3 90 -7 22 -5 31 8 38 9 5 16 16 16 23 0 9 9 15 22 15 20 0 20 1 4
19 -15 16 -15 22 -4 40 11 17 10 22 -5 34 -15 11 -16 17 -7 41 8 21 8 38 0 59
-7 21 -7 34 1 44 6 7 9 26 6 42 -3 15 -2 32 3 37 16 16 70 15 87 -1z m1993
-95 c0 -11 -7 -20 -15 -20 -8 0 -15 5 -15 11 0 5 5 7 10 4 6 -3 10 1 10 9 0 9
2 16 5 16 3 0 5 -9 5 -20z m-2313 -82 c-2 -18 -4 -6 -4 27 0 33 2 48 4 33 2
-15 2 -42 0 -60z m1717 21 c-3 -6 -13 -8 -21 -5 -10 4 -13 2 -10 -7 3 -9 -4
-13 -24 -13 -20 0 -29 5 -29 15 0 12 12 17 45 18 29 1 43 -2 39 -8z m-360 -15
c4 -9 4 -19 1 -22 -3 -3 -5 0 -5 7 0 7 -7 11 -14 8 -10 -4 -13 -1 -9 9 7 19
19 18 27 -2z m939 -14 c3 -11 1 -20 -4 -20 -5 0 -9 9 -9 20 0 11 2 20 4 20 2
0 6 -9 9 -20z m-1385 -79 c-7 -41 -17 -70 -23 -68 -12 5 -9 62 4 92 5 11 12
29 15 39 14 41 16 5 4 -63z m495 24 c-3 -9 -8 -14 -10 -11 -3 3 -2 9 2 15 9
16 15 13 8 -4z m-516 -127 c-3 -8 -6 -5 -6 6 -1 11 2 17 5 13 3 -3 4 -12 1
-19z m0 -100 c-4 -46 -7 -111 -7 -145 0 -49 -3 -63 -15 -63 -8 0 -15 5 -15 10
0 6 -10 10 -22 10 l-21 0 23 25 c31 33 39 121 12 141 -16 13 -16 15 0 24 10 6
20 26 24 45 3 19 11 35 17 35 6 0 8 -28 4 -82z m-875 -116 c-5 -85 -22 -89
-22 -4 0 53 3 70 13 67 8 -4 11 -23 9 -63z m1591 43 c-3 -9 -8 -14 -10 -11 -3
3 -2 9 2 15 9 16 15 13 8 -4z m27 -30 c-6 -15 -13 -26 -16 -23 -2 3 0 18 6 33
6 15 13 26 16 23 2 -3 0 -18 -6 -33z m-1559 -75 c-8 -21 -9 -17 -9 25 0 28 3
55 7 60 10 17 13 -59 2 -85z m1614 69 c-5 -13 -3 -19 3 -15 5 3 12 -1 16 -9 5
-15 30 -16 52 -3 9 6 36 4 54 -2 3 -1 8 -2 13 -1 4 0 7 -3 7 -7 0 -5 6 -9 13
-9 30 0 147 -49 143 -59 -8 -20 6 -24 21 -6 12 15 13 14 7 -13 -4 -24 -3 -27
6 -15 9 12 10 10 5 -10 -4 -14 -11 -29 -16 -34 -12 -14 -11 -39 1 -31 13 8 13
-6 0 -25 -8 -12 -12 -13 -19 -2 -6 11 -10 10 -15 -3 -5 -14 -9 -15 -20 -6 -11
9 -16 9 -23 -1 -8 -13 -19 -16 -85 -22 -25 -3 -36 0 -31 7 3 6 1 7 -5 3 -6 -4
-8 -14 -5 -24 6 -15 5 -15 -10 -3 -9 7 -14 18 -11 25 3 6 -8 -4 -24 -21 -31
-36 -52 -42 -52 -17 0 10 -6 14 -14 11 -16 -7 -59 26 -49 37 4 4 2 10 -4 14
-6 4 -15 20 -19 36 -4 17 -3 27 2 23 5 -3 9 8 10 25 1 19 -2 25 -7 17 -9 -16
-14 -12 -23 18 -6 18 -4 22 7 17 10 -3 18 5 26 28 9 28 9 31 -3 16 -22 -29
-24 -21 -7 30 9 28 17 40 19 30 5 -24 18 -23 25 2 3 11 8 20 12 20 3 0 3 -10
0 -21z m-408 -81 c-3 -8 -6 -5 -6 6 -1 11 2 17 5 13 3 -3 4 -12 1 -19z m290
-30 c-3 -8 -6 -5 -6 6 -1 11 2 17 5 13 3 -3 4 -12 1 -19z m-1555 -49 c5 -3 4
-18 -3 -35 l-11 -29 -10 25 c-5 13 -6 36 -2 50 4 17 8 20 12 10 3 -8 9 -18 14
-21z m871 -21 c3 -24 3 -46 -1 -50 -4 -4 -28 3 -54 15 -33 16 -44 27 -39 35 5
8 17 11 33 7 20 -5 26 -2 31 14 9 35 24 24 30 -21z m-803 -25 c0 -7 -4 -13
-10 -13 -5 0 -10 12 -10 28 0 21 2 24 10 12 5 -8 10 -21 10 -27z m1227 -5 c-3
-8 -6 -5 -6 6 -1 11 2 17 5 13 3 -3 4 -12 1 -19z m-426 -70 c2 -21 -3 -63 -7
-67 -12 -13 -25 21 -19 48 6 31 24 43 26 19z m1111 -30 c-7 -7 -12 -8 -12 -2
0 14 12 26 19 19 2 -3 -1 -11 -7 -17z m-164 -20 c-6 -18 -25 -21 -31 -5 -3 8
3 13 15 14 10 1 18 -3 16 -9z m-2198 -478 c0 -5 -2 -10 -4 -10 -3 0 -8 5 -11
10 -3 6 -1 10 4 10 6 0 11 -4 11 -10z m940 -221 c0 -27 -4 -48 -8 -45 -12 7
-12 96 -1 96 5 0 9 -23 9 -51z"/>
<path d="M4374 9611 c-45 -24 -120 -89 -112 -96 5 -5 84 49 147 102 2 1 2 5 0
7 -2 2 -18 -4 -35 -13z"/>
<path d="M4120 9280 c-12 -23 2 -27 19 -6 8 9 8 16 2 20 -6 4 -15 -3 -21 -14z"/>
<path d="M3660 8827 c-35 -18 -70 -74 -70 -113 0 -18 -4 -36 -10 -39 -25 -15
-6 -23 43 -18 42 4 62 1 95 -16 50 -26 55 -26 48 -3 -4 10 1 27 9 38 34 44 12
125 -42 153 -28 14 -42 14 -73 -2z m68 -19 c28 -28 0 -88 -43 -88 -43 0 -57
38 -29 78 17 24 53 29 72 10z"/>
<path d="M4155 8698 c-32 -25 -58 -82 -50 -108 3 -10 1 -21 -5 -25 -23 -14 -7
-25 40 -25 51 0 89 -12 129 -42 27 -21 44 -15 36 13 -4 10 -2 19 3 19 17 0 34
56 27 91 -17 87 -114 129 -180 77z m109 -11 c23 -17 18 -65 -9 -83 -46 -31
-97 35 -59 77 20 22 43 24 68 6z"/>
<path d="M3801 6461 c-12 -8 -13 -14 -3 -35 21 -46 60 -29 42 18 -10 28 -17
31 -39 17z"/>
<path d="M3738 6433 c-21 -5 -24 -46 -5 -62 10 -8 18 -7 31 2 14 10 15 18 7
40 -6 15 -12 26 -13 26 -2 -1 -11 -3 -20 -6z"/>
<path d="M3585 6369 c-104 -44 -359 -125 -450 -143 -93 -19 -188 -24 -227 -13
-32 9 -36 -2 -12 -38 15 -23 22 -25 95 -25 126 0 353 58 594 151 102 40 112
49 99 83 -8 21 -17 20 -99 -15z"/>
<path d="M2557 3388 c-12 -9 -14 -17 -7 -28 9 -13 11 -13 20 0 9 14 14 40 7
40 -2 0 -11 -6 -20 -12z"/>
<path d="M2650 2930 c0 -5 5 -10 11 -10 5 0 7 5 4 10 -3 6 -8 10 -11 10 -2 0
-4 -4 -4 -10z"/>
<path d="M4115 2720 c-3 -5 -1 -10 4 -10 6 0 11 5 11 10 0 6 -2 10 -4 10 -3 0
-8 -4 -11 -10z"/>
<path d="M4100 2696 c0 -4 7 -14 15 -22 13 -14 16 -14 21 1 4 9 4 19 0 22 -3
4 -6 1 -6 -7 0 -10 -3 -10 -15 0 -8 7 -15 9 -15 6z"/>
<path d="M4100 2635 c0 -8 2 -15 4 -15 2 0 6 7 10 15 3 8 1 15 -4 15 -6 0 -10
-7 -10 -15z"/>
<path d="M3810 2629 c0 -5 5 -7 10 -4 6 3 10 8 10 11 0 2 -4 4 -10 4 -5 0 -10
-5 -10 -11z"/>
<path d="M4380 9855 c-7 -8 -8 -15 -2 -15 5 0 15 7 22 15 7 8 8 15 2 15 -5 0
-15 -7 -22 -15z"/>
<path d="M3000 8921 c0 -11 25 -21 52 -21 17 0 18 3 8 15 -13 16 -60 21 -60 6z"/>
<path d="M3030 8503 c0 -12 16 -39 36 -60 36 -37 37 -38 47 -16 13 29 3 53
-24 53 -11 0 -29 10 -40 23 l-18 22 -1 -22z"/>
<path d="M1135 8430 c6 -80 -17 -103 -215 -220 -197 -116 -331 -195 -380 -222
-25 -15 -62 -41 -83 -60 l-37 -34 30 -62 c36 -77 115 -188 144 -204 28 -16 80
-11 147 12 59 21 147 31 152 17 2 -8 75 77 127 151 34 48 57 54 66 17 6 -24
10 -27 44 -29 8 -1 16 -11 18 -24 2 -15 9 -22 17 -18 8 3 24 -3 37 -13 13 -10
34 -22 48 -26 14 -4 43 -23 64 -41 22 -19 46 -34 53 -34 7 0 13 -4 13 -10 0
-5 18 -20 40 -32 22 -13 40 -29 40 -35 0 -7 7 -13 15 -13 8 0 15 -6 15 -13 0
-12 17 -23 73 -49 15 -7 27 -18 27 -25 0 -7 11 -13 25 -13 15 0 25 6 25 14 0
15 -46 56 -62 56 -5 0 -24 15 -42 33 -18 17 -46 43 -62 56 -16 14 -65 57 -110
95 -87 77 -103 91 -179 151 -27 22 -69 57 -93 78 -33 30 -49 37 -67 33 -52
-13 -29 14 72 85 157 111 163 116 163 152 0 36 -40 124 -93 206 -35 55 -35 55
-32 21z"/>
<path d="M3670 8380 c0 -5 5 -10 10 -10 6 0 10 5 10 10 0 6 -4 10 -10 10 -5 0
-10 -4 -10 -10z"/>
<path d="M3705 8330 c-3 -5 -1 -10 4 -10 6 0 11 5 11 10 0 6 -2 10 -4 10 -3 0
-8 -4 -11 -10z"/>
<path d="M4186 7708 c-10 -31 -14 -88 -7 -88 8 0 31 67 31 89 0 15 -20 14 -24
-1z"/>
<path d="M630 7520 c6 -11 13 -20 16 -20 2 0 0 9 -6 20 -6 11 -13 20 -16 20
-2 0 0 -9 6 -20z"/>
<path d="M627 7343 c-4 -4 19 -32 51 -63 96 -89 361 -342 401 -381 65 -65 214
-170 300 -211 148 -70 284 -87 644 -80 132 2 138 3 146 25 10 26 46 157 56
205 l7 34 -25 -17 c-14 -9 -37 -17 -51 -19 -14 -1 -29 -6 -33 -9 -3 -4 -17 -4
-29 -1 -14 4 -24 2 -24 -4 0 -6 -9 -8 -20 -5 -11 3 -20 9 -20 14 0 13 -48 1
-87 -22 -19 -10 -35 -14 -38 -8 -4 5 -14 5 -27 -2 -17 -9 -23 -8 -30 5 -11 19
-38 22 -38 4 0 -10 -3 -9 -9 1 -6 9 -11 10 -15 3 -4 -6 -14 -8 -23 -5 -10 4
-14 2 -9 -5 3 -6 2 -13 -3 -16 -5 -4 -13 -1 -17 5 -4 7 -21 9 -45 5 -27 -4
-49 -1 -69 9 -28 14 -31 14 -36 0 -4 -10 -13 -13 -24 -10 -10 3 -21 1 -25 -5
-6 -10 -57 -5 -79 8 -5 3 -27 6 -49 6 -22 1 -42 7 -45 14 -2 7 -13 12 -23 12
-29 0 -108 38 -138 67 -31 29 -76 54 -84 47 -3 -3 -3 5 0 18 3 17 2 19 -5 9
-10 -14 -44 15 -137 122 -22 26 -46 46 -54 47 -7 0 -11 6 -8 14 4 9 0 12 -12
9 -13 -3 -20 3 -25 21 -3 14 -24 43 -46 63 -31 30 -37 40 -29 55 9 17 7 18
-18 12 -15 -4 -30 -8 -32 -10 -2 -2 -9 6 -15 19 -9 17 -22 23 -57 25 -24 2
-48 0 -52 -5z"/>
<path d="M4885 7152 c-11 -2 -27 -10 -35 -18 -9 -7 -25 -11 -37 -8 -16 4 -22
0 -26 -18 -14 -56 -28 -568 -29 -1073 -1 -433 2 -581 16 -745 9 -113 21 -272
26 -354 6 -83 21 -242 34 -355 14 -113 30 -267 36 -341 10 -127 32 -276 66
-450 7 -41 16 -93 18 -115 4 -38 76 -327 110 -445 9 -30 21 -73 27 -95 26 -99
78 -267 96 -315 8 -20 9 -25 33 -108 11 -40 29 -92 39 -115 10 -23 29 -71 42
-107 12 -36 31 -77 41 -91 10 -15 19 -37 20 -50 3 -20 -2 -25 -25 -27 -15 -2
-38 -14 -51 -27 -21 -21 -137 -65 -171 -65 -6 0 -20 18 -30 40 -23 50 -27 47
-13 -10 15 -63 29 -76 59 -57 13 9 51 23 84 32 33 9 68 20 77 25 10 5 24 7 32
4 20 -8 105 38 140 75 l30 31 -11 73 c-7 39 -24 128 -38 197 -14 69 -41 208
-60 310 -19 102 -43 232 -54 290 -79 429 -109 675 -146 1225 -8 121 -20 294
-26 385 -6 90 -9 178 -6 196 4 22 -2 42 -19 70 -37 60 -121 236 -127 264 -2
14 -12 52 -21 85 -35 129 -67 374 -96 740 -6 77 -15 190 -20 250 -20 250 -4
550 35 627 16 33 20 64 8 71 -5 2 -17 2 -28 -1z"/>
<path d="M2488 6585 c-15 -8 -30 -25 -34 -37 -3 -12 -20 -34 -37 -49 -24 -22
-31 -38 -35 -81 -2 -29 -10 -60 -17 -68 -22 -25 -35 -90 -24 -112 8 -15 6 -39
-6 -90 -16 -65 -19 -69 -41 -65 -39 7 -57 -14 -62 -77 -4 -46 -2 -56 11 -56
10 0 20 15 27 41 8 30 15 39 28 35 23 -7 184 -46 189 -46 2 0 2 -24 1 -52 -4
-75 20 -72 47 5 l20 58 -21 37 c-24 43 -20 67 19 126 28 40 43 96 34 121 -4 8
-2 17 4 21 18 11 31 58 35 136 6 93 -10 132 -61 154 -41 17 -43 17 -77 -1z
m82 -64 c15 -28 13 -71 -4 -71 -18 0 -83 28 -90 38 -3 5 2 18 10 30 20 28 69
30 84 3z m-56 -101 c67 -30 72 -35 57 -59 -9 -15 -27 -11 -103 21 -45 19 -60
42 -41 61 10 11 17 9 87 -23z m-9 -80 c15 -6 25 -17 25 -30 0 -24 -8 -25 -60
-4 -28 11 -40 22 -40 36 0 21 15 21 75 -2z m-30 -64 c42 -19 55 -30 55 -46 0
-19 -4 -21 -32 -15 -26 6 -103 39 -116 50 -1 1 0 10 4 19 8 22 24 20 89 -8z
m-51 -84 c6 -10 -20 -122 -31 -133 -4 -4 -15 -4 -22 1 -12 7 -12 18 3 74 17
60 35 82 50 58z m55 -26 c6 -7 9 -20 7 -27 -3 -8 -10 -33 -16 -56 -10 -39 -31
-56 -44 -35 -7 11 25 132 34 132 4 0 13 -6 19 -14z"/>
<path d="M6054 4985 c-203 -45 -490 -229 -555 -357 -22 -43 -18 -61 17 -77 26
-11 126 -15 137 -5 3 3 -3 26 -14 52 -12 28 -18 56 -14 73 8 35 74 110 130
149 52 36 224 80 312 80 56 0 143 29 143 47 0 5 -6 18 -14 29 -17 24 -59 27
-142 9z"/>
<path d="M6255 4731 c-55 -34 -69 -57 -73 -126 -5 -76 17 -132 97 -246 64 -91
94 -179 89 -268 l-3 -65 40 -28 c23 -16 60 -31 88 -34 l47 -7 0 49 c0 71 -26
207 -60 320 -35 114 -70 280 -70 331 0 75 -86 117 -155 74z"/>
</g>
</svg>
